<?xml version="1.0" encoding="UTF-8" standalone="no"?>
<!-- Created with Inkscape (http://www.inkscape.org/) -->

<svg
   version="1.1"
   id="svg182"
   width="423.44165"
   height="119.75195"
   viewBox="0 0 423.44165 119.75195"
   xmlns="http://www.w3.org/2000/svg"
   xmlns:svg="http://www.w3.org/2000/svg">
  <defs
     id="defs186" />
  <g
     id="g188"
     transform="translate(-3.7791898,-4.6240239)">
      <path
       id="path1774"
       style="fill:#005f8f;fill-opacity:1"
       d="m 389.79503,4.624024 c -3.27605,0 -5.9924,0.59717 -8.14843,1.79101 -2.12804,1.16542 -3.59815,2.68647 -4.41016,4.5625 -0.78401,1.87604 -1.17578,4.71843 -1.17578,8.52735 v 3.41015 h -6.55274 v 9.42384 h 6.55274 v 35.857417 h 11.80078 V 32.338874 h 8.82031 v -9.42384 h -8.82031 v -3.19726 c 0,-2.30241 0.36379,-3.85255 1.0918,-4.64844 0.75601,-0.82432 1.98924,-1.23633 3.69726,-1.23633 1.73603,0 3.54194,0.2288 5.41797,0.6836 l 1.5957,-8.35743 c -3.22004,-1.02329 -6.50909,-1.53515 -9.86914,-1.53515 z m 25.91407,2.30273 -11.84375,6.99219 v 8.99609 h -5.41993 v 9.55079 h 5.41993 v 19.74219 c 0,4.23528 0.12495,7.048589 0.37695,8.441402 0.308,1.961308 0.85466,3.524038 1.63867,4.689453 0.81201,1.13699 2.07127,2.07541 3.7793,2.814453 1.70802,0.710619 3.62587,1.066407 5.7539,1.066407 3.47206,0 6.58018,-0.597176 9.32422,-1.791016 l -1.00781,-9.294922 c -2.07203,0.767468 -3.65408,1.150391 -4.74609,1.150391 -0.78401,0 -1.45562,-0.197757 -2.01563,-0.595703 -0.53201,-0.397947 -0.88278,-0.895268 -1.05078,-1.492185 -0.14,-0.62535 -0.20898,-2.78721 -0.20898,-6.48242 v -18.24805 h 8.06445 v -9.55079 H 415.7091 Z M 20.820418,7.793944 c 0,0 -0.05273,3.89699 -0.05273,6.50391 v 4.74023 l -8.173828,-4.40625 c -4.4953598,-2.42358 -8.3203638,-4.40625 -8.4999998,-4.40625 -0.179635,0 -0.320981,17.21253 -0.314453,38.25 l 0.01172,38.250004 1.402344,5.263672 c 3.534325,13.27662 13.7848148,23.84213 27.5742188,28.41992 0,0 10.833336,1.50055 13.5,1.33789 4.399996,-0.26839 25.036921,-1.36927 28.320312,-2.25 4.678156,-1.25485 11.177303,-4.76779 13.160157,-6.1582 1.95536,-1.37113 8.757082,-8.17873 10.132812,-10.13086 1.43223,-2.0323 5.842169,-11.056523 6.386719,-13.482422 0.76659,-3.415016 0.77313,-17.590037 -0.0156,-21 -0.56473,-2.441441 -5.135219,-11.475974 -6.593759,-13.513674 -1.30567,-1.82413 -7.755915,-8.1355 -9.546871,-9.48633 -3.788249,-2.85727 -12.421875,-6.95312 -12.421875,-6.95312 -11.536748,-6.45685 -43.35316,-24.42265 -50.587891,-28.56641 -1.741512,-0.99747 -4.28125,-2.41211 -4.28125,-2.41211 z m -10.552734,12.58398 9.75,5.48438 9.75,5.48243 V 58.05176 84.756838 c 0,0 1.877942,5.079002 3.708984,6.96875 2.083294,2.150088 4.89958,3.690531 7.791016,4.466797 2.641234,0.709094 5.589875,0.83298 8.205078,0.0332 1.27471,-0.38983 2.202711,-1.500001 3.304688,-2.25 1.818263,-1.237499 4.247867,-3.52188 5.398437,-5.076172 0.697315,-0.941995 1.73009,-1.711375 2.091797,-2.826172 0.557752,-1.71902 0.467633,-9.127833 -0.105469,-10.841797 -0.36157,-1.081342 -2.03125,-2.753906 -2.03125,-2.753906 -1.116896,-1.513897 -3.437855,-3.651954 -5.158203,-4.751953 l -3.128906,-2 -0.03711,-9.750001 -0.03906,-9.75 h 2.107422 c 1.158867,0 4.94687,1.35512 8.417969,3.01172 l 10.839843,8.048828 c 0,0 3.356668,3.106813 4.527344,5.037109 1.013053,1.670398 3.759571,9.054194 4.107422,10.976563 0.44069,2.435439 0.44069,12.416123 0,14.851562 -0.344395,1.90327 -1.355422,3.62206 -2.033203,5.433594 -0.677781,1.811533 -1.03893,3.776493 -2.033203,5.435547 -1.05435,1.759293 -4.066406,4.617183 -4.066406,4.617183 -5.022247,5.70557 -11.327042,9.48629 -18.720704,11.22656 -6.310962,1.48543 -8.670724,1.52929 -15.035156,0.2793 C 25.659425,112.7436 14.983759,102.65493 11.316512,90.040041 L 9.7403402,84.616213 10.004012,52.497074 Z m 132.814456,1.51368 c -5.90809,0 -10.79414,2.13277 -14.6582,6.39648 -3.86406,4.23529 -5.79688,10.10525 -5.79687,17.60938 -1e-5,6.28187 1.47011,11.483879 4.41015,15.605468 3.72406,5.14488 9.46459,7.716797 17.2207,7.716797 4.90008,0 8.97461,-1.13813 12.22266,-3.41211 3.27605,-2.302405 5.66962,-5.642119 7.18164,-10.019535 l -11.75976,-2.0039 c -0.64401,2.27398 -1.59545,3.923972 -2.85547,4.947263 -1.26002,1.023291 -2.81408,1.533203 -4.66211,1.533203 -2.71604,0 -4.98466,-0.980098 -6.80469,-2.941406 -1.82003,-1.98973 -2.77147,-4.76136 -2.85547,-8.31445 h 29.56836 c 0.168,-9.1812 -1.66589,-15.98762 -5.50195,-20.42188 -3.83606,-4.46268 -9.07289,-6.69531 -15.70899,-6.69531 z m 49.85547,0 c -6.6361,0 -11.90091,2.08914 -15.79297,6.26758 -3.89206,4.15001 -5.83789,9.96374 -5.83789,17.43945 0,7.39044 1.93282,13.175078 5.79688,17.353516 3.89206,4.178439 9.09895,6.267579 15.62304,6.267579 5.74009,0 10.31833,-1.379518 13.73438,-4.136719 3.41605,-2.757201 5.72567,-6.835626 6.92969,-12.236326 l -11.5918,-2.00391 c -0.58801,3.15515 -1.59542,5.38582 -3.02344,6.693361 -1.42802,1.279114 -3.26192,1.919922 -5.50195,1.919922 -2.99605,0 -5.38961,-1.109042 -7.18164,-3.326173 -1.76403,-2.21713 -2.64649,-6.01249 -2.64649,-11.38476 0,-4.83221 0.86749,-8.27178 2.60352,-10.31836 1.76403,-2.07501 4.1166,-3.11133 7.05664,-3.11133 2.21203,0 4.00298,0.59717 5.375,1.79101 1.40002,1.19384 2.29745,2.96887 2.68945,5.32813 l 11.63282,-2.13086 c -1.40002,-4.86063 -3.70964,-8.47082 -6.92969,-10.83008 -3.19205,-2.38768 -7.50347,-3.58203 -12.93555,-3.58203 z m 49.05664,0 c -4.36806,0 -8.33066,0.98205 -11.88672,2.94336 -3.52805,1.96131 -6.25742,4.8037 -8.18945,8.52734 -1.93203,3.72365 -2.89844,7.57523 -2.89844,11.55469 0,5.20173 0.96641,9.6214 2.89844,13.259766 1.93203,3.609943 4.74535,6.352482 8.44141,8.228516 3.72405,1.876033 7.63069,2.814453 11.71875,2.814453 6.6081,0 12.08181,-2.245218 16.42187,-6.736329 4.36807,-4.519535 6.55274,-10.204326 6.55274,-17.054686 0,-6.79352 -2.15669,-12.40754 -6.46875,-16.8418 -4.31207,-4.46268 -9.84175,-6.69531 -16.58985,-6.69531 z m 48.55274,0 c -6.4121,0 -11.14522,1.33588 -14.19727,4.00781 -3.05204,2.67193 -4.57812,5.96997 -4.57812,9.89258 0,4.34899 1.76491,7.74493 5.29297,10.18945 2.54803,1.76234 8.58141,3.70994 18.10156,5.8418 2.04403,0.48322 3.36121,1.00963 3.94922,1.57813 0.56,0.59692 0.83984,1.35017 0.83984,2.25976 0,1.33596 -0.51867,2.401373 -1.55469,3.197266 -1.54002,1.136991 -3.83662,1.705079 -6.88867,1.705079 -2.77204,0 -4.92677,-0.597176 -6.4668,-1.791016 -1.54002,-1.222264 -2.56239,-2.997299 -3.0664,-5.328129 l -11.84375,1.83204 c 1.09201,4.292133 3.40163,7.690023 6.92969,10.191402 3.55605,2.501378 8.37117,3.751953 14.44726,3.751953 6.6921,0 11.74606,-1.491964 15.16211,-4.476563 3.41605,-2.984599 5.125,-6.553111 5.125,-10.703122 0,-3.80892 -1.23128,-6.7783 -3.69531,-8.91016 -2.49204,-2.10343 -6.88936,-3.88041 -13.18946,-5.33008 -6.27209,-1.44966 -9.93989,-2.57324 -11.0039,-3.36914 -0.78401,-0.59692 -1.17578,-1.32108 -1.17578,-2.17383 0,-0.99486 0.44773,-1.80434 1.34375,-2.42968 1.34402,-0.88117 3.56968,-1.32227 6.67773,-1.32227 2.46404,0 4.3539,0.46823 5.66992,1.40625 1.34402,0.93802 2.25446,2.28845 2.73047,4.05078 l 11.13086,-2.08789 c -1.12002,-3.95104 -3.16477,-6.93692 -6.13281,-8.95508 -2.96805,-2.01816 -7.50333,-3.02734 -13.60742,-3.02734 z m 51.82812,0 c -4.36806,0 -8.33066,0.98205 -11.88672,2.94336 -3.52805,1.96131 -6.25742,4.8037 -8.18945,8.52734 -1.93203,3.72365 -2.89844,7.57523 -2.89844,11.55469 0,5.20173 0.96641,9.6214 2.89844,13.259766 1.93203,3.609943 4.74535,6.352482 8.44141,8.228516 3.72405,1.876033 7.63068,2.814453 11.71875,2.814453 6.6081,0 12.08181,-2.245218 16.42187,-6.736329 4.36807,-4.519535 6.55274,-10.204326 6.55274,-17.054686 0,-6.79352 -2.15669,-12.40754 -6.46875,-16.8418 -4.31207,-4.46268 -9.84175,-6.69531 -16.58985,-6.69531 z m -198.57812,9.16797 c 2.40803,0 4.45083,0.90933 6.13086,2.72851 1.68002,1.79076 2.56248,4.4189 2.64648,7.88672 h -17.64062 c -0.028,-3.26884 0.79849,-5.8553 2.47851,-7.75976 1.68003,-1.90446 3.80873,-2.85547 6.38477,-2.85547 z m 98.23828,0.5957 c 3.08004,0 5.65648,1.19435 7.72851,3.58203 2.10004,2.38768 3.15039,5.79816 3.15039,10.23243 0,4.54796 -1.05035,8.01661 -3.15039,10.40429 -2.07203,2.387681 -4.64847,3.582033 -7.72851,3.582033 -3.08005,0 -5.6695,-1.194352 -7.76953,-3.582033 -2.10003,-2.38768 -3.15039,-5.82725 -3.15039,-10.31836 0,-4.49111 1.05036,-7.93068 3.15039,-10.31836 2.10003,-2.38768 4.68948,-3.58203 7.76953,-3.58203 z m 100.38281,0 c 3.08005,0 5.65453,1.19435 7.72656,3.58203 2.10003,2.38768 3.15039,5.79816 3.15039,10.23243 0,4.54796 -1.05036,8.01661 -3.15039,10.40429 -2.07203,2.387681 -4.64651,3.582033 -7.72656,3.582033 -3.08005,0 -5.67145,-1.194352 -7.77148,-3.582033 -2.10004,-2.38768 -3.14844,-5.82725 -3.14844,-10.31836 0,-4.49111 1.0484,-7.93068 3.14844,-10.31836 2.10003,-2.38768 4.69143,-3.58203 7.77148,-3.58203 z M 124.9923,83.549807 v 11.453125 h 5.02344 c 1.89948,-0.01042 3.09706,-0.03646 3.59375,-0.07813 0.79201,-0.06771 1.45718,-0.247397 1.99414,-0.539063 0.54367,-0.296874 0.97054,-0.690105 1.27929,-1.179687 0.31547,-0.494791 0.47266,-1.002606 0.47266,-1.523438 0,-0.661456 -0.24135,-1.23698 -0.72461,-1.726562 -0.48326,-0.489582 -1.17482,-0.835938 -2.07422,-1.039063 0.63764,-0.223958 1.14061,-0.559897 1.50977,-1.007812 0.37587,-0.447916 0.56445,-0.940106 0.56445,-1.476563 0,-0.49479 -0.15109,-0.940105 -0.45312,-1.335937 -0.30204,-0.401041 -0.68226,-0.721355 -1.13868,-0.960938 -0.4497,-0.239582 -0.96183,-0.395833 -1.53906,-0.46875 -0.57051,-0.07813 -1.44149,-0.117187 -2.60937,-0.117187 z m 13.45117,0 3.52344,11.453125 h 3.23047 l 2.92969,-8.5625 2.9414,8.5625 h 3.16016 l 3.58398,-11.453125 h -3 l -2.26562,8 -2.58594,-8 h -3.54492 l -2.69727,7.867187 -2.22656,-7.867187 z m 19.83203,0 v 1.9375 h 4.38086 v 9.515625 h 2.98047 v -9.515625 h 4.36914 v -1.9375 z m 135.87305,0.884765 c -1.15231,0 -2.16885,0.120121 -3.05078,0.361328 -0.66306,0.178827 -1.27588,0.452137 -1.83594,0.822266 -0.55362,0.370129 -0.99063,0.788126 -1.3125,1.253906 -0.43131,0.632131 -0.64648,1.414143 -0.64648,2.345704 0,1.455563 0.62085,2.59989 1.86328,3.43164 1.24243,0.827592 2.91643,1.242188 5.02148,1.242188 2.0793,0 3.73999,-0.416297 4.98242,-1.248047 1.24244,-0.835909 1.86328,-1.992393 1.86328,-3.46875 1e-5,-1.488834 -0.6275,-2.650419 -1.88281,-3.486328 -1.24887,-0.83591 -2.91621,-1.253907 -5.00195,-1.253907 z m 39.33984,0 c -1.08793,0 -2.01852,0.10431 -2.79101,0.316407 -0.76606,0.212096 -1.35558,0.522129 -1.76758,0.929687 -0.40556,0.403399 -0.60742,0.838907 -0.60742,1.304688 0,0.723623 0.43367,1.336634 1.30273,1.839843 0.618,0.357653 1.69445,0.658931 3.22656,0.904297 1.19094,0.191303 1.95237,0.325533 2.28711,0.400391 0.48925,0.112286 0.83032,0.244564 1.02344,0.398437 0.19956,0.149715 0.30078,0.332573 0.30078,0.548828 0,0.336859 -0.23514,0.633035 -0.70508,0.886719 -0.46349,0.249525 -1.15561,0.373047 -2.07617,0.373047 -0.86906,0 -1.56117,-0.141033 -2.07617,-0.423828 -0.50856,-0.282795 -0.8463,-0.725106 -1.01367,-1.328125 l -2.78125,0.173828 c 0.18669,1.023053 0.75957,1.803365 1.71875,2.339844 0.95918,0.53232 2.33343,0.798828 4.12305,0.798828 1.22955,0 2.25608,-0.111617 3.08007,-0.332031 0.824,-0.224573 1.46149,-0.564022 1.91211,-1.021485 0.45063,-0.457462 0.67578,-0.948653 0.67578,-1.472656 0,-0.578066 -0.1905,-1.062202 -0.57031,-1.453125 -0.37337,-0.395081 -0.89495,-0.705115 -1.56445,-0.929687 -0.66306,-0.228732 -1.68959,-0.450013 -3.08008,-0.66211 -1.39049,-0.212096 -2.2645,-0.415867 -2.625,-0.611328 -0.28325,-0.153874 -0.42578,-0.338432 -0.42578,-0.554687 0,-0.237049 0.15056,-0.426962 0.45312,-0.56836 0.46994,-0.220414 1.12074,-0.330078 1.95118,-0.330078 0.80468,0 1.40751,0.104563 1.80664,0.3125 0.40556,0.203779 0.6687,0.539827 0.79101,1.009766 l 2.85742,-0.08008 c -0.0451,-0.840068 -0.51672,-1.512416 -1.41796,-2.015625 -0.89481,-0.503209 -2.23107,-0.753907 -4.00782,-0.753907 z m 13.18946,0 c -1.08794,0 -2.01657,0.10431 -2.78907,0.316407 -0.76606,0.212096 -1.35558,0.522129 -1.76757,0.929687 -0.40557,0.403399 -0.60938,0.838907 -0.60938,1.304688 0,0.723623 0.43563,1.336634 1.30469,1.839843 0.618,0.357653 1.69249,0.658931 3.22461,0.904297 1.19093,0.191303 1.95431,0.325533 2.28906,0.400391 0.48925,0.112286 0.83031,0.244564 1.02344,0.398437 0.19956,0.149715 0.29883,0.332573 0.29883,0.548828 0,0.336859 -0.23515,0.633035 -0.70508,0.886719 -0.4635,0.249525 -1.15562,0.373047 -2.07617,0.373047 -0.86906,0 -1.56118,-0.141033 -2.07618,-0.423828 -0.50856,-0.282795 -0.84629,-0.725106 -1.01367,-1.328125 l -2.78125,0.173828 c 0.18669,1.023053 0.75957,1.803365 1.71875,2.339844 0.95919,0.53232 2.33343,0.798828 4.12305,0.798828 1.22956,0 2.25803,-0.111617 3.08203,-0.332031 0.824,-0.224573 1.45953,-0.564022 1.91016,-1.021485 0.45062,-0.457462 0.67773,-0.948653 0.67773,-1.472656 0,-0.578066 -0.1905,-1.062202 -0.57031,-1.453125 -0.37338,-0.395081 -0.89496,-0.705115 -1.56445,-0.929687 -0.66306,-0.228732 -1.68959,-0.450013 -3.08008,-0.66211 -1.3905,-0.212096 -2.26646,-0.415867 -2.62696,-0.611328 -0.28324,-0.153874 -0.42578,-0.338432 -0.42578,-0.554687 0,-0.237049 0.15252,-0.426962 0.45508,-0.56836 0.46994,-0.220414 1.12074,-0.330078 1.95117,-0.330078 0.80469,0 1.40557,0.104563 1.80469,0.3125 0.40556,0.203779 0.6687,0.539827 0.79102,1.009766 l 2.85937,-0.08008 c -0.0451,-0.840068 -0.51868,-1.512416 -1.41992,-2.015625 -0.89481,-0.503209 -2.23107,-0.753907 -4.00781,-0.753907 z m 19.99804,0 c -1.1523,0 -2.16884,0.120121 -3.05078,0.361328 -0.66306,0.178827 -1.27392,0.452137 -1.83398,0.822266 -0.55362,0.370129 -0.99258,0.788126 -1.31446,1.253906 -0.43131,0.632131 -0.64648,1.414143 -0.64648,2.345704 0,1.455563 0.62085,2.59989 1.86328,3.43164 1.24243,0.827592 2.91643,1.242188 5.02149,1.242188 2.0793,0 3.73999,-0.416297 4.98242,-1.248047 1.24243,-0.835909 1.86328,-1.992393 1.86328,-3.46875 0,-1.488834 -0.62751,-2.650419 -1.88281,-3.486328 -1.24887,-0.83591 -2.91622,-1.253907 -5.00196,-1.253907 z m 54.71289,0 c -1.08793,0 -2.01852,0.10431 -2.79101,0.316407 -0.76606,0.212096 -1.35558,0.522129 -1.76758,0.929687 -0.40556,0.403399 -0.60742,0.838907 -0.60742,1.304688 0,0.723623 0.43367,1.336634 1.30273,1.839843 0.618,0.357653 1.69445,0.658931 3.22657,0.904297 1.19093,0.191303 1.95236,0.325533 2.2871,0.400391 0.48925,0.112286 0.83032,0.244564 1.02344,0.398437 0.19956,0.149715 0.30078,0.332573 0.30078,0.548828 0,0.336859 -0.23514,0.633035 -0.70508,0.886719 -0.46349,0.249525 -1.15561,0.373047 -2.07617,0.373047 -0.86906,0 -1.56117,-0.141033 -2.07617,-0.423828 -0.50856,-0.282795 -0.8463,-0.725106 -1.01367,-1.328125 l -2.78125,0.173828 c 0.18669,1.023053 0.75957,1.803365 1.71875,2.339844 0.95918,0.53232 2.33343,0.798828 4.12305,0.798828 1.22955,0 2.25608,-0.111617 3.08007,-0.332031 0.824,-0.224573 1.46149,-0.564022 1.91211,-1.021485 0.45063,-0.457462 0.67578,-0.948653 0.67578,-1.472656 0,-0.578066 -0.1905,-1.062202 -0.57031,-1.453125 -0.37337,-0.395081 -0.89495,-0.705115 -1.56445,-0.929687 -0.66306,-0.228732 -1.68959,-0.450013 -3.08008,-0.66211 -1.39049,-0.212096 -2.2645,-0.415867 -2.625,-0.611328 -0.28325,-0.153874 -0.42578,-0.338432 -0.42578,-0.554687 0,-0.237049 0.15056,-0.426962 0.45312,-0.56836 0.46994,-0.220414 1.12074,-0.330078 1.95118,-0.330078 0.80468,0 1.40751,0.104563 1.80664,0.3125 0.40556,0.203779 0.6687,0.539827 0.79101,1.009766 l 2.85743,-0.08008 c -0.0451,-0.840068 -0.51673,-1.512416 -1.41797,-2.015625 -0.89481,-0.503209 -2.23107,-0.753907 -4.00782,-0.753907 z m -237.78515,0.154297 3.38086,9.146485 h 3.09961 l 2.80859,-6.837891 2.82031,6.837891 h 3.03321 l 3.4375,-9.146485 h -2.87891 l -2.17188,6.388672 -2.48242,-6.388672 h -3.39843 l -2.5879,6.283203 -2.13476,-6.283203 z m 23.02148,0 -5.51367,9.146485 h 3.03125 l 1.16797,-2.078125 h 5.66015 l 1.23438,2.078125 h 3.10938 l -5.66797,-9.146485 z m 7.72461,0 v 1.548828 h 4.20117 v 7.597657 h 2.85742 v -7.597657 h 4.19141 v -1.548828 z m 13.09375,0 v 9.146485 h 10.76758 v -1.541016 h -7.91016 v -2.490234 h 7.10742 v -1.539063 h -7.10742 v -2.027344 h 7.63868 v -1.548828 z m 13.19922,0 v 9.146485 h 2.85938 v -3.81836 h 0.58007 c 0.65663,0 1.13494,0.03477 1.4375,0.105469 0.30256,0.06654 0.589,0.193716 0.85938,0.380859 0.27037,0.182985 0.77199,0.630651 1.50586,1.341797 l 2.0664,1.990235 h 3.41993 l -1.72852,-1.785157 c -0.68237,-0.711146 -1.22725,-1.205738 -1.63281,-1.484375 -0.39913,-0.278636 -0.9074,-0.534688 -1.52539,-0.767578 1.24243,-0.116445 2.17634,-0.39681 2.80078,-0.841797 0.62443,-0.449145 0.93554,-1.016931 0.93554,-1.703125 0,-0.540637 -0.20518,-1.021372 -0.61718,-1.441406 -0.412,-0.420034 -0.96354,-0.710855 -1.65235,-0.873047 -0.68237,-0.16635 -1.77821,-0.25 -3.29101,-0.25 z m 19.76758,0 v 9.146485 h 2.85742 v -3.451172 h 1.86328 c 1.29393,0 2.28247,-0.04353 2.96484,-0.13086 0.50213,-0.0707 0.99571,-0.213432 1.47852,-0.429687 0.48925,-0.220414 0.8916,-0.521692 1.20703,-0.904297 0.31544,-0.382605 0.47266,-0.854584 0.47266,-1.416016 0,-0.727781 -0.27313,-1.319881 -0.82031,-1.777343 -0.54719,-0.461622 -1.22795,-0.761199 -2.03907,-0.898438 -0.52787,-0.09149 -1.66032,-0.138672 -3.39843,-0.138672 z m 13.19922,0 v 9.146485 h 2.85937 v -3.81836 h 0.57813 c 0.65662,0 1.13689,0.03477 1.43945,0.105469 0.30256,0.06654 0.589,0.193716 0.85937,0.380859 0.27038,0.182985 0.77199,0.630651 1.50586,1.341797 l 2.06641,1.990235 h 3.41797 l -1.72852,-1.785157 c -0.68237,-0.711146 -1.22529,-1.205738 -1.63086,-1.484375 -0.39912,-0.278636 -0.90739,-0.534688 -1.52539,-0.767578 1.24244,-0.116445 2.1744,-0.39681 2.79883,-0.841797 0.62444,-0.449145 0.9375,-1.016931 0.9375,-1.703125 0,-0.540637 -0.20519,-1.021372 -0.61719,-1.441406 -0.41199,-0.420034 -0.96353,-0.710855 -1.65234,-0.873047 -0.68237,-0.16635 -1.78016,-0.25 -3.29297,-0.25 z m 29.67382,0 v 9.146485 h 2.85938 v -3.886719 h 5.9082 V 88.30176 h -5.9082 v -2.164063 h 6.8457 v -1.548828 z m 12.06055,0 v 9.146485 h 10.76758 v -1.541016 h -7.9082 v -2.490234 h 7.10547 v -1.539063 h -7.10547 v -2.027344 h 7.63672 v -1.548828 z m 39.48438,0 v 9.146485 h 2.85742 v -9.146485 z m 20.99218,0 v 9.146485 h 2.65625 V 87.77051 l 5.70704,5.964844 h 2.86718 v -9.146485 h -2.65429 v 6.107422 l -5.79493,-6.107422 z m 18.32813,0 -5.51367,9.146485 h 3.03125 l 1.16992,-2.078125 h 5.6582 l 1.23633,2.078125 h 3.10938 l -5.66993,-9.146485 z m 10.2832,0.07617 v 9.070313 h 9.96485 v -1.541016 h -7.10547 v -7.529297 z m -276.45898,0.791016 h 1.71094 c 1.40279,0 2.25154,0.01302 2.54687,0.03906 0.49668,0.04687 0.86885,0.182292 1.11719,0.40625 0.25505,0.21875 0.38281,0.505209 0.38281,0.859375 0,0.369791 -0.14803,0.669272 -0.44336,0.898438 -0.28861,0.223958 -0.68716,0.359375 -1.19726,0.40625 -0.28191,0.02604 -1.0029,0.03906 -2.16407,0.03906 h -1.95312 z m 166.20508,0.55664 c 1.17805,0 2.12,0.257753 2.82812,0.773438 0.71456,0.515685 1.07227,1.297697 1.07227,2.345703 0,1.060482 -0.36574,1.856352 -1.09961,2.388672 -0.72744,0.528161 -1.66135,0.791015 -2.80078,0.791016 -1.13944,-1e-6 -2.08001,-0.264555 -2.82032,-0.796876 -0.74031,-0.536479 -1.10937,-1.323845 -1.10937,-2.359374 0,-1.052165 0.35908,-1.837578 1.08008,-2.357422 0.72099,-0.524003 1.67155,-0.785157 2.84961,-0.785157 z m 72.52734,0 c 1.17806,0 2.12196,0.257753 2.83008,0.773438 0.71456,0.515685 1.07226,1.297697 1.07226,2.345703 0,1.060482 -0.36769,1.856352 -1.10156,2.388672 -0.72743,0.528161 -1.66135,0.791015 -2.80078,0.791016 -1.13943,-1e-6 -2.07805,-0.264555 -2.81836,-0.796876 -0.74031,-0.536479 -1.11133,-1.323845 -1.11133,-2.359374 0,-1.052165 0.36104,-1.837578 1.08203,-2.357422 0.721,-0.524003 1.6696,-0.785157 2.84766,-0.785157 z m -123.20312,0.125 h 2.23046 c 1.15875,0 1.85419,0.0085 2.08594,0.0293 0.4635,0.0499 0.82121,0.171979 1.07227,0.363282 0.2575,0.187143 0.38476,0.434439 0.38476,0.742187 0,0.274478 -0.0959,0.502562 -0.28906,0.685547 -0.19312,0.182985 -0.4596,0.311861 -0.80078,0.386719 -0.34119,0.07486 -1.19718,0.113281 -2.56836,0.113281 h -2.11523 z m 19.76562,0 h 1.38086 c 1.02999,0 1.71545,0.01896 2.05664,0.06055 0.4635,0.05406 0.84783,0.189995 1.15039,0.40625 0.30256,0.216255 0.45313,0.491519 0.45313,0.824219 0,0.270319 -0.10926,0.507159 -0.32813,0.710937 -0.21244,0.203779 -0.50886,0.353568 -0.88867,0.449219 -0.37981,0.09565 -1.13321,0.142578 -2.25977,0.142578 h -1.56445 z m 13.20117,0 h 2.23047 c 1.15875,0 1.85419,0.0085 2.08594,0.0293 0.4635,0.0499 0.81925,0.171979 1.07031,0.363282 0.2575,0.187143 0.38672,0.434439 0.38672,0.742187 0,0.274478 -0.0959,0.502562 -0.28906,0.685547 -0.19313,0.182985 -0.46155,0.311861 -0.80274,0.386719 -0.34118,0.07486 -1.19718,0.113281 -2.56836,0.113281 h -2.11328 z m -68.36719,0.585938 1.95118,3.392578 h -3.86328 z m 187.52344,0 1.95117,3.392578 H 393.713 Z m -267.65234,3.287109 h 2.40625 c 1.35581,0 2.234,0.05469 2.63672,0.164063 0.40943,0.109374 0.72271,0.283855 0.9375,0.523437 0.21478,0.239583 0.32031,0.531251 0.32031,0.875 0,0.406249 -0.13997,0.731772 -0.42188,0.976563 -0.27519,0.239582 -0.63513,0.390625 -1.07812,0.453125 -0.28861,0.04687 -0.96906,0.07031 -2.04297,0.07031 h -2.75781 z m 91.54297,17.642578 v 12.92383 h 1.98242 V 109.5752 l 4.49414,11.00195 h 1.85351 l 4.51563,-10.8164 v 10.8164 h 1.98242 v -12.92383 h -2.76758 l -3.71875,8.99219 c -0.37446,0.91094 -0.64953,1.6021 -0.82617,2.07227 -0.15544,-0.42315 -0.40305,-1.06189 -0.74219,-1.91407 l -3.67773,-9.15039 z m 44.29101,0.29102 -1.89844,0.95117 v 2.31836 h -1.39843 v 1.23438 h 1.39843 v 5.38672 c 1e-5,0.95208 0.0789,1.57917 0.23438,1.8789 0.15544,0.29385 0.42316,0.5307 0.80469,0.71289 0.38153,0.18219 0.91892,0.27344 1.61133,0.27344 0.42392,0 0.90443,-0.0466 1.4414,-0.14063 l -0.27539,-1.40234 c -0.3462,0.0411 -0.62593,0.0625 -0.83789,0.0625 -0.28261,0 -0.50081,-0.0388 -0.65625,-0.11523 -0.14837,-0.0764 -0.25942,-0.1793 -0.33008,-0.3086 -0.0636,-0.12929 -0.0937,-0.42051 -0.0937,-0.87304 v -5.47461 h 1.91797 v -1.23438 h -1.91797 z m -21.82226,3.05859 c -1.39188,0 -2.57111,0.34753 -3.53907,1.04102 -1.15872,0.83454 -1.73828,2.11784 -1.73828,3.85156 0,1.58093 0.48322,2.7924 1.45117,3.63281 0.97503,0.84042 2.2506,1.25977 3.82618,1.25977 0.98208,0 1.88624,-0.19026 2.71289,-0.57227 0.83371,-0.382 1.46549,-0.91785 1.89648,-1.60546 0.43806,-0.6935 0.65821,-1.64287 0.65821,-2.84766 0,-1.48689 -0.49057,-2.64982 -1.47266,-3.49023 -0.98209,-0.8463 -2.24761,-1.26954 -3.79492,-1.26954 z m 12.80273,0 c -1.56145,0 -2.75538,0.51449 -3.58203,1.54297 v -1.33203 h -1.7168 v 9.36328 h 1.90821 v -5.11328 c 0,-1.19891 0.29248,-2.01238 0.8789,-2.4414 0.59349,-0.42903 1.29686,-0.64454 2.10938,-0.64454 0.5087,0 0.94975,0.0971 1.32422,0.29102 0.38153,0.18806 0.64655,0.44434 0.79492,0.76758 0.14837,0.31736 0.22265,0.79884 0.22265,1.44531 v 5.69531 h 1.90821 v -5.75586 c 0,-0.73463 -0.0368,-1.24911 -0.10742,-1.54297 -0.11305,-0.45253 -0.31114,-0.84471 -0.59375,-1.17382 -0.28262,-0.32912 -0.70896,-0.59315 -1.28125,-0.79297 -0.56523,-0.2057 -1.18696,-0.3086 -1.86524,-0.3086 z m 17.42383,0 c -1.55438,0 -2.8199,0.43489 -3.79492,1.30469 -0.97502,0.8698 -1.46289,2.09292 -1.46289,3.66797 0,1.52215 0.48051,2.70644 1.4414,3.55273 0.96796,0.84042 2.27564,1.25977 3.92188,1.25977 1.30709,0 2.37992,-0.26404 3.2207,-0.79297 0.84078,-0.52893 1.41764,-1.27251 1.72852,-2.23047 l -1.97071,-0.20312 c -0.28968,0.66998 -0.68315,1.15728 -1.17773,1.46289 -0.49458,0.3056 -1.09154,0.45898 -1.79102,0.45898 -0.93969,0 -1.72274,-0.27375 -2.35156,-0.82031 -0.62882,-0.54656 -0.98013,-1.33285 -1.05078,-2.36133 h 8.39453 c 0.007,-0.18806 0.01,-0.32979 0.01,-0.42383 0,-1.54566 -0.47586,-2.74353 -1.42969,-3.5957 -0.95383,-0.85217 -2.18257,-1.2793 -3.6875,-1.2793 z m 12.74805,0 c -1.56145,0 -2.75539,0.51449 -3.58203,1.54297 v -1.33203 h -1.7168 v 9.36328 h 1.9082 v -5.11328 c 0,-1.19891 0.29248,-2.01238 0.87891,-2.4414 0.59349,-0.42903 1.29685,-0.64454 2.10937,-0.64454 0.50871,0 0.94976,0.0971 1.32422,0.29102 0.38153,0.18806 0.64655,0.44434 0.79492,0.76758 0.14838,0.31736 0.22266,0.79884 0.22266,1.44531 v 5.69531 h 1.9082 v -5.75586 c 0,-0.73463 -0.0348,-1.24911 -0.10547,-1.54297 -0.11304,-0.45253 -0.31113,-0.84471 -0.59375,-1.17382 -0.28261,-0.32912 -0.7109,-0.59315 -1.2832,-0.79297 -0.56523,-0.2057 -1.18696,-0.3086 -1.86523,-0.3086 z m 11.39453,0 c -1.55439,0 -2.8199,0.43489 -3.79492,1.30469 -0.97503,0.8698 -1.4629,2.09292 -1.4629,3.66797 0,1.52215 0.48052,2.70644 1.44141,3.55273 0.96796,0.84042 2.27564,1.25977 3.92188,1.25977 1.30709,0 2.37992,-0.26404 3.2207,-0.79297 0.84078,-0.52893 1.41764,-1.27251 1.72851,-2.23047 l -1.9707,-0.20312 c -0.28968,0.66998 -0.68316,1.15728 -1.17773,1.46289 -0.49458,0.3056 -1.09155,0.45898 -1.79102,0.45898 -0.93969,0 -1.72274,-0.27375 -2.35156,-0.82031 -0.62882,-0.54656 -0.98013,-1.33285 -1.05078,-2.36133 h 8.39453 c 0.007,-0.18806 0.01,-0.32979 0.01,-0.42383 1e-5,-1.54566 -0.47586,-2.74353 -1.42968,-3.5957 -0.95383,-0.85217 -2.18258,-1.2793 -3.6875,-1.2793 z m 11.59375,0 c -0.99622,0 -1.86556,0.2058 -2.60742,0.61719 -0.7348,0.41139 -1.29696,0.99577 -1.68555,1.75391 -0.3886,0.75226 -0.58203,1.57544 -0.58203,2.46875 0,1.29882 0.42364,2.41322 1.27148,3.34179 0.84785,0.92858 2.04448,1.39258 3.5918,1.39258 1.24351,0 2.28347,-0.40965 3.11719,-1.22656 0.007,1.03436 -0.0398,1.71387 -0.13868,2.03711 -0.16956,0.52893 -0.49416,0.94052 -0.9746,1.23437 -0.48045,0.29386 -1.16175,0.44141 -2.04493,0.44141 -0.81958,0 -1.46607,-0.14755 -1.93945,-0.44141 -0.35327,-0.21745 -0.56877,-0.56497 -0.64648,-1.04101 l -1.85547,-0.22852 c -0.0283,1.01085 0.37061,1.76608 1.19726,2.26563 0.82665,0.50542 1.91149,0.75781 3.25391,0.75781 1.13046,0 2.08143,-0.17667 2.85156,-0.5293 0.77719,-0.35262 1.34204,-0.8341 1.69531,-1.44531 0.36034,-0.60533 0.54102,-1.63624 0.54102,-3.09375 v -8.09375 h -1.75977 v 1.12891 c -0.86197,-0.89331 -1.95686,-1.33985 -3.28515,-1.33985 z m 12.06054,0 c -0.44511,0 -0.856,0.10679 -1.23046,0.31836 -0.3674,0.21158 -0.76898,0.6484 -1.20704,1.3125 v -1.41992 h -1.71679 v 9.36328 h 1.90625 v -4.90234 c 0,-0.66998 0.1064,-1.28737 0.31836,-1.85156 0.1413,-0.37026 0.37886,-0.65759 0.71093,-0.86328 0.33208,-0.21158 0.70619,-0.31641 1.12305,-0.31641 0.46632,0 0.93212,0.11454 1.39844,0.34375 l 0.6582,-1.47266 c -0.66414,-0.34087 -1.31799,-0.51172 -1.96094,-0.51172 z m 7.66211,0 c -1.39188,0 -2.5711,0.34753 -3.53906,1.04102 -1.15872,0.83454 -1.73828,2.11784 -1.73828,3.85156 0,1.58093 0.48321,2.7924 1.45117,3.63281 0.97502,0.84042 2.25059,1.25977 3.82617,1.25977 0.98209,0 1.88625,-0.19026 2.71289,-0.57227 0.83372,-0.382 1.4655,-0.91785 1.89649,-1.60546 0.43805,-0.6935 0.6582,-1.64287 0.6582,-2.84766 0,-1.48689 -0.49057,-2.64982 -1.47265,-3.49023 -0.98209,-0.8463 -2.24761,-1.26954 -3.79493,-1.26954 z m -55.43945,1.30469 c 0.96796,0 1.75761,0.30676 2.36523,0.91797 0.39567,0.39376 0.63397,0.98396 0.71876,1.77148 h -6.28321 c 0.0636,-0.8169 0.39089,-1.46923 0.98438,-1.95703 0.60055,-0.48779 1.33873,-0.73242 2.21484,-0.73242 z m 24.14258,0 c 0.96796,0 1.75566,0.30676 2.36328,0.91797 0.39566,0.39376 0.63592,0.98396 0.7207,1.77148 h -6.2832 c 0.0636,-0.8169 0.39088,-1.46923 0.98437,-1.95703 0.60056,-0.48779 1.33874,-0.73242 2.21485,-0.73242 z m -54.38867,0.01 c 0.93969,0 1.72469,0.29898 2.35351,0.89843 0.63589,0.59359 0.95313,1.46918 0.95313,2.62696 0,1.2283 -0.31454,2.14273 -0.94336,2.74219 -0.62882,0.59945 -1.41652,0.89843 -2.36328,0.89843 -0.95383,0 -1.74423,-0.29704 -2.37305,-0.89062 -0.62882,-0.59946 -0.94336,-1.49835 -0.94336,-2.69727 0,-1.19891 0.31454,-2.09392 0.94336,-2.6875 0.62882,-0.59358 1.41922,-0.89062 2.37305,-0.89062 z m 66.09961,0 c 0.86197,0 1.59745,0.29122 2.20507,0.87304 0.61469,0.58183 0.92188,1.44382 0.92188,2.58985 0,1.19891 -0.29713,2.08229 -0.89063,2.64648 -0.59349,0.55832 -1.32701,0.83594 -2.20312,0.83594 -0.88317,0 -1.61865,-0.28151 -2.20508,-0.8457 -0.58643,-0.5642 -0.87891,-1.46116 -0.87891,-2.68946 0,-1.12839 0.29519,-1.9768 0.88868,-2.54687 0.59349,-0.57595 1.31426,-0.86328 2.16211,-0.86328 z m 19.58593,0 c 0.9397,0 1.7247,0.29898 2.35352,0.89843 0.63588,0.59359 0.95312,1.46918 0.95312,2.62696 0,1.2283 -0.31454,2.14273 -0.94336,2.74219 -0.62881,0.59945 -1.41652,0.89843 -2.36328,0.89843 -0.95382,0 -1.74422,-0.29704 -2.37304,-0.89062 -0.62882,-0.59946 -0.94336,-1.49835 -0.94336,-2.69727 0,-1.19891 0.31454,-2.09392 0.94336,-2.6875 0.62882,-0.59358 1.41922,-0.89062 2.37304,-0.89062 z" />
  </g>
</svg>
