<?xml version="1.0" encoding="UTF-8" standalone="no"?>
<!-- Created with Inkscape (http://www.inkscape.org/) -->

<svg
   version="1.1"
   id="svg182"
   width="545.84595"
   height="545.62"
   viewBox="0 0 545.84595 545.61999"
   xmlns="http://www.w3.org/2000/svg"
   xmlns:svg="http://www.w3.org/2000/svg">
  <defs
     id="defs186" />
  <g
     id="g188"
     transform="translate(-0.14368951,-0.25662574)">
    <path
       style="fill:#ffffff;stroke-width:1.06667"
       d="m 102.93333,544.94828 c -1.17334,-0.48024 -3.093339,-1.9388 -4.266669,-3.24124 -1.92298,-2.13458 -2.16651,-4.14206 -2.46982,-20.35911 l -0.3365,-17.99104 -44.70683,-0.30011 -44.7068403,-0.30012 -2.95667,-2.95651 -2.95667005,-2.95651 -0.30661,-40.77682 c -0.35872,-47.70598 0.13083,-51.89534 7.94347005,-67.97682 4.1446403,-8.53128 6.3830403,-11.58365 14.1584903,-19.30704 12.36599,-12.28316 20.95171,-16.5681 44.87132,-22.39427 9.68,-2.35778 19.4,-4.75803 21.6,-5.33389 l 3.99999,-1.04702 v -6.82144 -6.82145 l -6.23204,-4.89617 c -8.30635,-6.52584 -14.30827,-14.10306 -19.41989,-24.51694 -6.75706,-13.76613 -7.65592,-20.54238 -7.19571,-54.24616 0.39328,-28.80155 0.41917,-29.08231 3.50958,-38.05665 7.24329,-21.03402 23.05304,-36.89469 44.447819,-44.59099 6.90115,-2.48253 9.4585,-2.81948 21.69024,-2.85783 11.75723,-0.0368 15.00252,0.33508 21.33333,2.44499 9.52254,3.17362 17.44791,7.702 25.63469,14.64707 l 6.48937,5.5051 2.35982,-6.57996 c 8.21975,-22.91925 30.02176,-45.14616 53.0566,-54.09062 13.21372,-5.1309 22.4871,-6.5617 38.83876,-5.99246 12.67605,0.44128 15.67503,0.92353 24.78789,3.98602 5.70193,1.9162 14.01033,5.61665 18.46311,8.22321 18.01577,10.54602 35.65927,32.08477 41.05644,50.1207 l 1.32891,4.44086 6.66722,-5.65598 c 8.43888,-7.15892 14.54799,-10.73422 24.26904,-14.20322 6.81642,-2.43246 9.39169,-2.75717 22.1148,-2.78832 12.94611,-0.0317 15.18991,0.24997 22.22358,2.78977 21.42337,7.73581 37.20661,23.57368 44.44782,44.60166 3.09041,8.97434 3.1163,9.2551 3.50958,38.05665 0.46021,33.70378 -0.43864,40.48003 -7.19571,54.24616 -5.11162,10.41388 -11.11354,17.9911 -19.41988,24.51694 l -6.23205,4.89617 v 6.82145 6.82144 l 4,1.04702 c 2.2,0.57586 11.91999,2.97611 21.59999,5.33389 23.91961,5.82617 32.50532,10.11111 44.87132,22.39427 7.77544,7.72339 10.01385,10.77576 14.15848,19.30704 7.81264,16.08148 8.3022,20.27084 7.94348,67.97682 l -0.30661,40.77682 -2.95668,2.95651 -2.95666,2.95651 -44.68729,0.30007 -44.68729,0.30007 -0.35603,18.07778 -0.35605,18.07779 -2.95758,2.95548 -2.95756,2.95548 h -65.01819 -65.01818 l -2.93333,-2.93334 c -4.09292,-4.09291 -4.09368,-10.30562 -0.002,-14.4 l 2.93157,-2.93333 28.19064,-0.31609 28.19063,-0.31611 0.32023,-25.52833 0.32022,-25.52832 2.93333,-2.93133 c 4.09342,-4.09062 10.30659,-4.09062 14.4,0 l 2.93334,2.93133 0.32055,25.57776 0.32055,25.57776 h 18.59158 18.59157 L 428.70344,497.69 c -0.057,-28.50472 -1.07411,-38.15104 -5.16202,-48.95554 -4.48088,-11.84312 -15.48623,-26.36381 -26.07022,-34.39762 -10.50959,-7.97732 -19.58751,-11.35529 -50.80484,-18.90485 -16.13333,-3.90168 -29.66759,-6.78976 -30.07613,-6.41797 -0.40853,0.37179 -8.21573,17.71598 -17.34933,38.54265 -17.35065,39.56342 -19.80684,43.73333 -25.76011,43.73333 -3.7581,0 -8.49864,-2.97715 -10.04684,-6.30962 -0.70407,-1.51638 -8.45839,-19.07705 -17.2314,-39.02371 -8.77301,-19.94667 -16.27753,-36.59202 -16.67669,-36.98968 -0.80887,-0.8058 -49.0693,10.5331 -59.92576,14.07971 -19.32733,6.31385 -35.32914,20.94069 -44.90154,41.0433 -6.33732,13.30872 -7.36512,20.67071 -7.36512,52.75503 v 27.7783 h 18.61277 18.61279 l 0.32055,-25.57776 0.32055,-25.57776 2.93333,-2.93133 c 4.09342,-4.09062 10.30658,-4.09062 14.4,0 l 2.93334,2.93133 0.32055,25.57776 0.32054,25.57776 24.74613,0.0157 c 27.584,0.0175 28.91746,0.29473 32.03396,6.65936 1.8949,3.86985 1.8949,4.11331 0,7.98317 -1.07499,2.19537 -3.15452,4.58828 -4.62119,5.31761 -2.03462,1.01173 -16.95091,1.31372 -62.93333,1.27413 -33.14666,-0.0285 -61.22666,-0.44481 -62.39999,-0.92505 z M 42.666661,457.37036 c 0,-19.84312 0.31081,-25.18733 1.61104,-27.70171 1.94348,-3.75827 4.59218,-5.31198 9.05563,-5.31198 4.46345,0 7.11215,1.55371 9.05563,5.31198 1.30024,2.51438 1.61104,7.85859 1.61104,27.70171 v 24.5863 h 15.83886 15.83887 l 0.64298,-10.55394 c 1.12103,-18.40089 6.999189,-36.09226 16.727429,-50.34413 2.35686,-3.45279 4.28519,-6.71968 4.28519,-7.25976 0,-1.04746 -20.915499,-51.24655 -21.663649,-51.99469 -1.00581,-1.00582 -39.87358,9.33331 -45.40751,12.07874 -8.49809,4.21598 -19.27448,15.22155 -23.31133,23.80712 -5.12605,10.90205 -5.61751,15.38599 -5.61751,51.2525 v 33.01416 h 10.66667 10.66666 z m 439.466639,0 c 0,-26.04334 0.55283,-29.38857 5.27425,-31.91541 2.63508,-1.41024 8.14976,-1.41024 10.78484,0 4.72142,2.52684 5.27425,5.87207 5.27425,31.91541 v 24.5863 h 10.66666 10.66667 V 448.9425 c 0,-35.86651 -0.49146,-40.35045 -5.61751,-51.2525 -4.03685,-8.58557 -14.81324,-19.59114 -23.31133,-23.80712 -5.95244,-2.95306 -44.43724,-13.04901 -45.53957,-11.94668 -0.31649,0.31649 -5.4418,12.19249 -11.38956,26.39111 l -10.8141,25.81567 5.63501,8.41879 c 9.38897,14.02724 14.6302,30.37843 16.02181,49.9836 l 0.66804,9.41129 h 15.84027 15.84027 z m -195.43106,-54.12327 13.03108,-29.64291 v -10.89042 c 0,-5.98973 -0.36019,-10.89042 -0.8004,-10.89042 -0.44022,0 -4.16022,0.71167 -8.26667,1.58148 -4.10645,0.86981 -12.02627,1.58147 -17.5996,1.58147 -5.57333,0 -13.49315,-0.71166 -17.5996,-1.58147 -4.10645,-0.86981 -7.82645,-1.58148 -8.26667,-1.58148 -0.44021,0 -0.80628,4.92 -0.81347,10.93333 l -0.0131,10.93333 13.01606,29.6 c 7.15884,16.28 13.30075,29.6 13.64868,29.6 0.34794,0 6.49659,-13.33931 13.66367,-29.64291 z M 138.4377,368.40004 c 7.00918,-16.96212 7.69562,-19.28041 7.69562,-25.99011 v -7.3668 l -4.53333,0.87698 c -2.49333,0.48234 -7.65333,0.87699 -11.46666,0.87699 -3.81334,0 -8.97334,-0.39465 -11.46667,-0.87699 l -4.53333,-0.87698 v 7.54599 c 0,6.94379 0.61291,9.01792 7.6802,25.9901 4.22412,10.14427 7.96109,18.44412 8.30437,18.44412 0.3433,0 4.0872,-8.38048 8.3198,-18.6233 z m 285.86665,0 c 7.00918,-16.96212 7.69562,-19.28041 7.69562,-25.99011 v -7.3668 l -4.53333,0.87698 c -2.49333,0.48234 -7.65333,0.87699 -11.46667,0.87699 -3.81333,0 -8.97333,-0.39465 -11.46666,-0.87699 l -4.53333,-0.87698 v 7.54599 c 0,6.94379 0.61291,9.01792 7.6802,25.9901 4.22411,10.14427 7.96109,18.44412 8.30437,18.44412 0.3433,0 4.0872,-8.38048 8.3198,-18.6233 z m -243.36518,9.56598 c 25.86768,-6.28818 24.85825,-5.95622 21.72748,-7.14536 -4.59865,-1.7467 -37.62586,-9.46034 -38.17116,-8.91505 -0.71994,0.71995 -9.82883,22.24264 -9.82883,23.22379 0,0.43787 2.34263,-0.12724 5.20584,-1.25581 2.86321,-1.12858 12.34321,-3.78698 21.06667,-5.90757 z m 210.52747,7.33271 c 0,-0.9685 -9.73888,-23.87539 -10.15063,-23.87539 -1.21205,0 -35.67955,8.57715 -37.84936,9.41872 -3.34648,1.29794 -3.8827,1.1085 18.66666,6.5948 9.97333,2.42654 20.29333,5.2864 22.93333,6.35524 5.46058,2.21081 6.4,2.43196 6.4,1.50663 z m -166.4019,-35.87539 -0.002,-7.73333 -5.06476,-3.17875 c -7.36256,-4.62087 -19.64274,-17.27967 -25.25176,-26.0303 -2.67589,-4.17503 -5.05022,-7.59095 -5.27605,-7.59095 -0.22584,0 -2.3985,2.57666 -4.82813,5.72591 -2.42963,3.14926 -7.288,7.98111 -10.79638,10.73745 l -6.37887,5.01152 v 6.82145 6.82144 l 4,1.04702 c 2.2,0.57586 11.77931,2.94225 21.28737,5.25863 9.50805,2.31639 20.30805,5.66459 23.99999,7.44045 3.69195,1.77585 7.07263,3.26796 7.51263,3.3158 0.44,0.0478 0.79915,-3.39301 0.79809,-7.64634 z m 103.9001,4.42439 c 3.88907,-1.81991 14.86297,-5.20726 24.38642,-7.52743 9.52346,-2.32016 19.11538,-4.68964 21.31538,-5.2655 l 4,-1.04702 v -6.80038 -6.80037 l -6.93333,-5.51702 c -3.81333,-3.03436 -6.9538,-5.83569 -6.97881,-6.22518 -0.025,-0.38949 -1.87496,-2.79095 -4.11099,-5.33658 l -4.06552,-4.62844 -4.29156,6.76177 c -5.81112,9.15597 -15.94806,19.97188 -24.31159,25.93997 l -6.90819,4.92958 v 7.41277 c 0,4.07703 0.18611,7.41277 0.41358,7.41277 0.22746,0 3.59554,-1.48902 7.48461,-3.30894 z m -32.60795,-23.63445 c 11.18505,-3.96339 18.82262,-8.78154 27.46027,-17.32327 8.59877,-8.50328 14.24936,-17.51418 18.33001,-29.23054 2.6875,-7.71635 2.8244,-9.1444 2.87078,-29.94324 l 0.0488,-21.84044 -20.26667,-11.97452 c -11.14666,-6.58599 -21.01686,-11.99779 -21.93377,-12.02622 -0.9169,-0.0285 -3.03701,1.37817 -4.71134,3.12581 -5.66006,5.90782 -20.89351,15.24334 -30.85116,18.90653 -14.06557,5.17439 -18.78871,5.87884 -43.03705,6.41887 l -23.73334,0.52856 v 15.3959 c 0,23.89998 3.60911,37.03957 14.2821,51.99642 8.12213,11.38212 19.09993,19.77702 32.44163,24.80858 10.57057,3.98649 14.38078,4.55193 28.47627,4.22589 10.56508,-0.24437 14.16601,-0.7801 20.62357,-3.06833 z m -31.82357,-22.29501 c -9.70915,-2.64725 -17.1951,-11.47939 -14.88332,-17.55981 2.9321,-7.71199 8.95915,-9.66764 16.38416,-5.31629 5.91169,3.46448 8.24366,3.4847 13.20336,0.11451 6.11103,-4.15256 12.78684,-2.95865 15.7758,2.82136 2.95348,5.71141 1.28501,11.0419 -4.76697,15.22963 -7.86547,5.4426 -16.93467,7.10408 -25.71303,4.7106 z m -34.21538,-43.47954 c -7.2888,-7.28879 -1.09192,-19.36741 8.95138,-17.44751 11.83852,2.26308 10.11555,20.56546 -1.936,20.56546 -2.88547,0 -4.70701,-0.80957 -7.01538,-3.11795 z m 71.45887,0.1484 c -5.6754,-5.07096 -4.21338,-13.92032 2.78273,-16.84349 3.52808,-1.47412 5.18855,-1.33289 9.72262,0.82695 5.3809,2.56323 6.21416,11.18719 1.5332,15.86814 -4.1988,4.1988 -9.44331,4.25425 -14.03855,0.1484 z m -160.18667,49.36846 c 16.06885,-3.78874 29.76942,-16.45632 35.18512,-32.53225 1.96289,-5.82662 3.33088,-44.79999 1.57251,-44.79999 -0.59524,0 -4.15868,1.38029 -7.91877,3.06733 -18.31584,8.21776 -39.5196,11.866 -68.9659,11.866 H 81.066661 l 0.0158,9.86666 c 0.0283,17.67968 4.29737,29.25843 14.57825,39.53932 12.323119,12.3231 28.891599,17.01014 45.929459,12.99293 z m 286.07099,-0.0477 c 8.61488,-2.0306 16.20297,-6.33675 22.81149,-12.94526 10.28089,-10.28089 14.55,-21.85964 14.57825,-39.53932 l 0.0158,-9.86665 H 444.6702 c -28.53799,0 -50.2323,-3.59084 -67.45016,-11.16432 -3.01769,-1.32737 -6.61941,-2.76749 -8.00381,-3.20025 l -2.51707,-0.78684 0.52091,20.10904 c 0.36078,13.92703 1.01804,21.58467 2.13797,24.90903 8.27269,24.55659 33.14486,38.41455 58.30309,32.48458 z M 133.30402,228.57615 c 5.55722,-0.90123 14.29874,-3.04396 19.4256,-4.76161 9.35908,-3.13558 24.33704,-10.11488 24.33704,-11.34038 0,-0.36063 -1.48858,-3.67942 -3.30795,-7.37508 -14.72351,-29.9077 -54.42274,-36.37983 -78.074199,-12.72836 -9.04086,9.04085 -14.61785,22.11357 -14.61785,34.26488 v 3.58775 l 21.066669,-0.004 c 13.83077,-0.003 24.53715,-0.56712 31.17069,-1.6429 z m 331.76262,-1.94055 c 0,-12.15131 -5.57699,-25.22403 -14.61785,-34.26488 -23.65146,-23.65147 -63.35069,-17.17934 -78.0742,12.72836 -1.81937,3.69566 -3.30795,7.01445 -3.30795,7.37508 0,1.23189 14.99991,8.21215 24.45243,11.37904 14.45407,4.84256 24.69564,6.14033 49.41424,6.26158 l 22.13333,0.10857 z M 246.93332,213.67885 c 15.73604,-3.31748 27.60507,-9.7388 40.56502,-21.94628 12.26221,-11.55025 11.47584,-11.62062 36.76831,3.29078 10.94603,6.45333 20.29288,11.73333 20.77078,11.73333 1.42407,0 -0.32677,-14.1269 -2.72751,-22.0071 -5.48322,-17.99827 -19.66125,-34.77887 -36.24613,-42.8996 -12.3034,-6.02432 -19.61543,-7.74454 -32.99714,-7.76282 -20.34783,-0.0278 -36.87103,6.86655 -51.21138,21.36809 -13.38859,13.53911 -19.84636,28.42265 -20.98624,48.3681 l -0.6553,11.46666 19.62646,-0.0186 c 13.15154,-0.0124 22.08977,-0.53784 27.09313,-1.59265 z m 21.86666,331.13662 c -5.96205,-2.42964 -8.2524,-9.97341 -4.68226,-15.42213 0.94475,-1.44187 3.52083,-3.16181 5.72462,-3.82209 5.30426,-1.58919 9.49762,0.36862 12.07293,5.63663 1.70052,3.47857 1.74895,4.31584 0.4319,7.46667 -0.81587,1.95183 -2.2035,4.14593 -3.08361,4.87577 -2.30684,1.91296 -7.37128,2.52531 -10.46358,1.26515 z M 78.093401,106.99044 c -4.70377,-2.00899 -7.01305,-7.560945 -6.37004,-15.314793 0.40335,-4.863868 1.03276,-6.302882 3.86275,-8.83148 3.74232,-3.343762 7.28511,-3.797209 11.72586,-1.50081 3.93814,2.036493 5.48802,5.834001 5.48802,13.44669 0,5.442693 -0.41237,6.770753 -2.93333,9.446983 -3.63562,3.85955 -7.22044,4.69793 -11.77326,2.75341 z m 381.912049,0.33831 c -5.18215,-1.34283 -7.20548,-5.25891 -7.20548,-13.945984 0,-6.935496 0.18946,-7.503695 3.4835,-10.446911 3.88232,-3.468852 7.35908,-3.903707 12.00452,-1.501462 4.30623,2.226843 5.31198,4.619472 5.31198,12.636994 0,5.818711 -0.42305,7.424383 -2.65497,10.076873 -3.03303,3.60454 -5.98783,4.46361 -10.93955,3.18049 z M 266.33222,86.847599 c -3.83059,-3.550066 -4.13927,-5.522159 -3.74466,-23.924073 0.34237,-15.966339 0.3745,-16.153043 3.27909,-19.054675 4.09321,-4.089035 10.30679,-4.089035 14.4,0 2.90459,2.901632 2.93672,3.088336 3.27909,19.054675 0.19018,8.868381 0.0508,17.299728 -0.3098,18.736325 -1.06669,4.250012 -5.66895,7.763502 -10.16929,7.763502 -2.70319,0 -4.8349,-0.815328 -6.73443,-2.575754 z M 47.760151,77.093964 c -3.5711,-1.937962 -5.09349,-4.629146 -5.09349,-9.003944 0,-4.463447 1.55372,-7.112149 5.31199,-9.055626 3.65143,-1.888229 13.01659,-2.128413 16.35814,-0.41953 8.0253,4.104175 8.0253,14.846138 0,18.950313 -3.29,1.682523 -13.12301,1.403007 -16.57664,-0.471213 z m 53.039839,0.711164 c -6.823809,-2.974691 -8.594789,-11.738493 -3.418179,-16.915107 2.675339,-2.675339 3.632689,-2.933333 10.884849,-2.933333 7.18625,0 8.22449,0.272974 10.78788,2.836363 3.952,3.952008 3.976,10.617938 0.0524,14.541597 -2.31231,2.312305 -3.91837,2.836245 -9.4788,3.09224 -3.68215,0.169521 -7.65479,-0.110271 -8.82813,-0.62176 z m 328.53332,-0.286503 c -7.84497,-4.314208 -7.73546,-14.8473 0.19654,-18.903761 3.34155,-1.708883 12.70671,-1.468699 16.35814,0.41953 3.75827,1.943477 5.31198,4.592179 5.31198,9.055626 0,4.463448 -1.55371,7.11215 -5.31198,9.055627 -3.60685,1.865175 -13.43848,2.086682 -16.55468,0.372978 z m 52.26666,0.286503 c -6.66392,-2.904991 -8.42216,-11.911122 -3.32122,-17.012077 2.5634,-2.563389 3.60164,-2.836363 10.78789,-2.836363 7.25216,0 8.20951,0.257994 10.88485,2.933333 4.0699,4.069898 4.09265,10.307345 0.0524,14.347657 -2.42001,2.420005 -3.95222,2.93031 -9.57576,3.18921 -3.68216,0.169521 -7.6548,-0.110271 -8.82813,-0.62176 z M 223.46665,59.39361 c -4.26106,-2.326682 -19.75416,-18.534669 -20.82831,-21.789378 -2.18437,-6.618688 2.83828,-13.247542 10.03757,-13.247542 3.98507,0 4.97472,0.702314 14.65492,10.399999 5.75048,5.760859 10.69509,11.668148 11.08481,13.242927 1.98314,8.013376 -7.6682,15.369549 -14.94899,11.393994 z m 88.82681,-0.432978 c -3.67555,-1.994652 -5.09348,-4.640426 -5.09348,-9.504173 0,-3.378746 1.12019,-5.002494 9.31725,-13.505646 5.12449,-5.315843 10.7028,-10.381665 12.39624,-11.257381 8.28089,-4.28221 17.7748,4.296634 14.14423,12.780945 -0.80389,1.878604 -6.01608,7.855645 -11.58265,13.282311 -10.86551,10.592424 -13.05485,11.528803 -19.18159,8.203944 z M 75.586111,53.335874 c -2.82999,-2.528598 -3.4594,-3.967612 -3.86275,-8.83148 -0.64449,-7.7718 1.66958,-13.324366 6.37185,-15.289101 4.70515,-1.965935 8.83863,-0.999785 12.04981,2.816488 2.16967,2.578509 2.65497,4.300971 2.65497,9.423225 0,7.549711 -1.55838,11.34958 -5.48802,13.381678 -4.44075,2.296399 -7.98354,1.842952 -11.72586,-1.50081 z m 380.954539,0.08748 c -3.85622,-3.506049 -5.135,-10.174574 -3.27541,-17.080555 1.4468,-5.373009 4.80509,-7.932777 10.40743,-7.932777 3.1178,0 4.63631,0.725344 6.95775,3.323495 2.60777,2.918593 2.96955,4.174676 2.96955,10.310123 0,8.082559 -0.99917,10.471762 -5.31198,12.702007 -4.58883,2.372975 -8.12019,1.975481 -11.74734,-1.322293 z M 269.33332,20.188676 c -6.79757,-2.910815 -8.59503,-11.7218004 -3.44242,-16.874409 6.47721,-6.477217 17.2606,-1.994236 17.2606,7.175757 0,7.024092 -7.60267,12.360224 -13.81818,9.698652 z"
       id="path300" />
  </g>
</svg>
