<?xml version="1.0" encoding="UTF-8" standalone="no"?>
<!-- Created with Inkscape (http://www.inkscape.org/) -->

<svg
   version="1.1"
   id="svg1027"
   width="452.96466"
   height="412.31158"
   viewBox="0 0 452.96466 412.31158"
   xmlns="http://www.w3.org/2000/svg"
   xmlns:svg="http://www.w3.org/2000/svg">
  <defs
     id="defs1031" />
  <g
     id="g1033"
     transform="translate(-29.517675,-49.844208)">
    <path
       style="fill:#ffffff"
       d="m 231.93408,460.75795 c -43.27005,-7.86038 -83.50218,-36.0899 -113.79747,-79.84782 -9.22118,-13.3189 -60.681544,-102.3872 -68.151564,-117.95767 -7.59383,-15.82852 -13.4964,-33.07464 -17.0726,-49.88271 -3.48802,-16.39363 -4.47207,-44.4066 -2.08777,-59.43299 6.68261,-42.11528 31.33962,-78.022105 67.19652,-97.855052 9.821374,-5.432335 11.254934,-5.9375 16.849554,-5.9375 8.19188,0 15.88201,3.586621 23.76533,11.08397 11.18964,10.641798 18.05354,20.859175 31.09774,46.291032 l 7.95007,15.5 141.65029,0.5 141.6503,0.5 4.98418,2.45257 c 2.7413,1.34892 6.86033,4.38299 9.15341,6.74239 7.8027,8.02839 7.3636,0.99734 7.35264,117.73318 l -0.01,104.07186 -2.33331,5 c -2.72792,5.8456 -8.88738,11.74339 -15.47748,14.81997 -4.59462,2.14499 -5.55428,2.18468 -59.7133,2.46944 l -55.04363,0.28942 -3.42414,-2.30753 c -5.53845,-3.73236 -6.43253,-10.53016 -2.09057,-15.89485 l 1.9234,-2.37645 54.38486,-0.5 c 49.75197,-0.45741 54.61389,-0.65015 57.07341,-2.26265 1.4787,-0.96946 2.93187,-2.76946 3.22926,-4 0.2974,-1.23054 0.41704,-43.80541 0.26588,-94.61082 l -0.27461,-92.37346 -74,58.14246 c -55.17867,43.35437 -75.39888,58.69641 -79.5,60.32043 -3.97997,1.57604 -7.72846,2.19262 -13.56338,2.231 -7.28268,0.0479 -8.73499,-0.28583 -15,-3.44696 -8.08239,-4.07812 -113.6324,-86.60577 -115.66614,-90.43728 l -1.27048,-2.39354 -7,4.04258 c -15.08235,8.71021 -16.30887,9.69824 -19.08626,15.37502 -2.42421,4.95492 -2.61498,6.21459 -2.22119,14.66684 0.29104,6.24689 1.01647,10.38177 2.23624,12.74638 0.993,1.925 12.78486,22.44942 26.20412,45.60983 16.47432,28.43315 25.77169,43.46926 28.62615,46.29547 6.37708,6.31396 13.82251,9.59667 21.74094,9.58565 6.27844,-0.009 6.96015,-0.27404 20,-7.78356 16.39929,-9.44418 21.47633,-11.09139 32.40864,-10.51476 18.9902,1.00166 33.87546,13.62909 53.76622,45.61084 9.87933,15.88468 14.36153,24.46447 18.38715,35.19653 2.43564,6.49329 2.82163,8.97651 2.87562,18.5 0.0883,15.57324 -2.13012,19.0381 -18.0756,28.23155 -13.52345,7.79701 -25.06854,11.96386 -42.5231,15.34743 -11.69768,2.26759 -36.13252,2.50465 -47.38933,0.45976 z m 42.16503,-21.08669 c 15.59342,-2.71927 35.00397,-10.46412 43.5312,-17.36905 2.19663,-1.77873 2.25014,-2.14287 1.20848,-8.22403 -1.55512,-9.07877 -6.42433,-20.074 -15.58909,-35.20197 -13.60501,-22.45736 -23.19862,-33.77648 -32.76311,-38.65593 -7.37731,-3.76362 -12.19815,-2.68565 -27.50211,6.14962 -7.15,4.12783 -15.21766,8.25759 -17.92814,9.17723 -6.08234,2.06369 -17.19354,2.14817 -24.5643,0.18677 -11.89415,-3.16511 -24.68904,-11.80525 -30.88184,-20.85391 -3.51698,-5.13887 -48.838,-83.18607 -52.48979,-90.39254 -9.65063,-19.0446 -6.49016,-44.58347 7.19714,-58.15815 2.58233,-2.56107 10.47371,-7.95455 17.66693,-12.07472 7.15,-4.09541 14.20101,-8.63266 15.66891,-10.08277 8.18434,-8.08518 5.27324,-24.1746 -9.39992,-51.9526 C 136.37441,89.730767 123.7998,73.340387 117.1443,71.669964 c -3.01672,-0.757147 -12.58212,4.138954 -21.659824,11.086685 -7.92128,6.062655 -20.77246,19.811561 -26.28146,28.117371 -26.18878,39.48433 -24.70394,95.09434 4.02128,150.6036 6.92115,13.3746 54.199004,94.79385 60.325964,103.88998 27.16033,40.32243 64.30211,67.67831 100.88557,74.30482 10.32747,1.87065 28.93261,1.87011 39.66328,-10e-4 z m 29.45971,-180.51602 c 3.74119,-2.59222 142.41027,-111.30227 144.88995,-113.58691 1.22943,-1.13274 -19.9019,-1.34912 -131.75,-1.34912 H 183.48448 v 6.3185 c 0,6.98629 -2.09317,15.3267 -5.1847,20.65885 -2.00536,3.45877 -2.00558,3.48435 -0.0419,4.78817 1.08581,0.72096 25.36602,19.69523 53.95601,42.16506 28.59,22.46982 53.28429,41.58548 54.87621,42.47923 4.13953,2.32405 12.0032,1.62034 16.46874,-1.47378 z"
       id="path1154" />
  </g>
</svg>
