<?xml version="1.0" encoding="UTF-8" standalone="no"?>
<!-- Created with Inkscape (http://www.inkscape.org/) -->

<svg
   version="1.1"
   id="svg323"
   width="511.9718"
   height="511.64966"
   viewBox="0 0 511.9718 511.64966"
   xmlns="http://www.w3.org/2000/svg"
   xmlns:svg="http://www.w3.org/2000/svg">
  <defs
     id="defs327" />
  <g
     id="g329"
     transform="translate(-0.01410292,-0.17517294)">
    <path
       style="fill:#ffffff"
       d="m 57.993529,511.20274 c -4.94267,-1.56591 -8.70506,-4.03561 -12.431353,-8.16017 -6.356001,-7.03533 -7.768848,-11.55846 -8.726457,-27.93714 -0.916968,-15.68358 -11.460694,-231.14164 -12.356423,-252.5 -0.299857,-7.15 -0.791185,-15.8125 -1.09184,-19.25 l -0.546645,-6.25 h -4.604682 c -6.601161,0 -12.3530175,-3.10111 -15.3020395,-8.25009 -2.42441604,-4.23302 -2.43529004,-4.38095 -2.73580904,-37.22022 -0.325823,-35.60426 0.02262,-38.57023 5.09053104,-43.33129 5.0493435,-4.74361 8.2626715,-5.25437 32.4550535,-5.15873 20.544534,0.0812 22.809694,-0.0762 23.972254,-1.66612 0.87357,-1.19467 1.28388,-5.529789 1.28388,-13.564687 v -11.80887 h -8.5 c -7.427147,0 -8.500472,0.220881 -8.503738,1.75 -0.0062,2.921488 -3.717986,8.054738 -7.082128,9.794403 -2.603612,1.34638 -5.655108,1.579842 -16.972832,1.298549 C 9.8139805,88.646959 7.8010705,88.351519 5.3213905,86.509024 0.13282746,82.653729 0.03059146,81.926404 0.01474046,48.756552 -0.00149854,14.773225 0.24782346,13.162388 6.0548655,9.7320844 8.4972445,8.2893355 11.613286,7.9144701 22.288707,7.7791236 38.110527,7.5785293 42.247162,8.9509584 44.904163,15.282349 l 1.595836,3.802732 8.25,0.01017 8.25,0.01017 v -3.039838 c 0,-5.044071 3.54626,-10.6829282 8.26346,-13.1395867 3.57732,-1.8630264 6.29503,-2.27205803 17.46561,-2.62867563 7.27599,-0.232284 14.823111,-0.1232907 16.771381,0.2422072 C 112.13239,1.7836879 119,9.9405284 119,16.573302 v 2.532119 h 54.5 54.5 v -3.039838 c 0,-5.044071 3.54627,-10.6829282 8.26346,-13.1395867 3.57732,-1.8630264 6.29503,-2.27205803 17.46561,-2.62867563 7.27599,-0.232284 14.82311,-0.1232907 16.77138,0.2422072 C 277.13239,1.7836879 284,9.9405284 284,16.573302 v 2.532119 h 54.5 54.5 v -3.039838 c 0,-5.044071 3.54627,-10.6829282 8.26346,-13.1395867 3.57732,-1.8630264 6.29503,-2.27205803 17.46561,-2.62867563 7.27599,-0.232284 14.82311,-0.1232907 16.77138,0.2422072 C 442.13239,1.7836879 449,9.9405284 449,16.573302 c 0,2.505698 0.0861,2.532013 8.25,2.521948 l 8.25,-0.01017 1.68613,-4.01417 c 2.61583,-6.2274893 6.38669,-7.4442517 22.52516,-7.2683154 10.70562,0.116709 13.78456,0.4826594 16.23384,1.9294888 5.80705,3.4303036 6.05637,5.0411406 6.04013,39.0244676 -0.0159,33.169852 -0.11809,33.897177 -5.30665,37.752472 -2.47968,1.842495 -4.49259,2.137935 -16.61991,2.439351 -11.31773,0.281293 -14.36922,0.04783 -16.97283,-1.298549 -3.36415,-1.739666 -7.07589,-6.872916 -7.08213,-9.794404 -0.003,-1.529119 -1.07659,-1.75 -8.50374,-1.75 H 449 v 11.80887 c 0,8.034898 0.41031,12.370019 1.28388,13.564689 1.16256,1.5899 3.42772,1.74733 23.97225,1.66612 28.03536,-0.11083 31.46869,0.89058 35.86314,10.46033 1.66176,3.6188 1.8389,7.11491 1.85877,36.6849 0.014,20.77874 -0.36658,33.71036 -1.04465,35.5 -2.40989,6.3604 -10.03695,11.25329 -17.6038,11.29314 l -4.1704,0.022 -0.57382,6.25 c -0.31559,3.4375 -3.26305,63.625 -6.54991,133.75 -6.33395,135.13475 -7.03276,146.5168 -9.49494,154.65095 -2.39642,7.91693 -7.23792,14.35513 -13.0149,17.30715 l -4.97438,2.5419 h -32.02562 c -31.02851,0 -32.20131,-0.071 -37.66849,-2.28177 -8.21219,-3.3207 -14.0338,-9.88991 -16.165,-18.24088 -1.29777,-5.08529 -3.05565,-36.02852 -8.1793,-143.97739 -3.58944,-75.625 -6.78405,-140.3125 -7.09914,-143.75 l -0.57288,-6.25 H 338.5 324.15919 l -0.57225,6.25 c -0.31473,3.4375 -3.49648,67.675 -7.07054,142.75 -3.57407,75.075 -6.91758,138.75 -7.43003,141.5 -1.3925,7.47264 -2.61929,10.03797 -7.15202,14.95539 -2.63126,2.85459 -6.16585,5.29746 -9.77766,6.75767 -5.48393,2.21709 -6.63402,2.28694 -37.65669,2.28694 -30.91591,0 -32.13551,-0.0734 -36,-2.16527 -8.26008,-4.47131 -14.50427,-13.44326 -15.89226,-22.83473 -0.32514,-2.2 -3.52267,-65.425 -7.10562,-140.5 -3.58295,-75.075 -6.7725,-139.3125 -7.08788,-142.75 l -0.57343,-6.25 H 173.5 159.15919 l -0.57225,6.25 c -0.31473,3.4375 -3.49623,67.675 -7.07,142.75 -3.57376,75.075 -6.74732,138.28088 -7.05235,140.45752 -1.2532,8.94269 -7.99018,18.63296 -15.89638,22.8649 -3.91079,2.09332 -5.30642,2.18515 -36.068211,2.37328 -17.6,0.10763 -33.12791,-0.16164 -34.50647,-0.59839 z m 63.746661,-15.44206 c 4.60651,-2.41183 7.25233,-8.29132 8.33613,-18.5244 0.50276,-4.74697 2.7218,-48.00585 4.93121,-96.13085 2.20942,-48.125 4.29399,-90.81105 4.63239,-94.85789 l 0.61527,-7.35788 -2.37759,0.79737 c -1.30768,0.43856 -4.94144,0.75593 -8.07502,0.70527 -7.84368,-0.12682 -15.4324,-3.80493 -23.15974,-11.2251 -11.759821,-11.29236 -15.740821,-11.26402 -29.002631,0.20651 -12.22534,10.57406 -19.98806,13.22645 -30.474185,10.4125 l -5.333975,-1.43137 0.620109,9.12529 c 0.341059,5.01892 2.645282,51.2003 5.120491,102.6253 2.47521,51.425 4.92678,95.09643 5.44792,97.04763 0.52114,1.95119 2.33307,4.87619 4.0265,6.5 l 3.07897,2.95237 21.18698,0.59486 c 29.651231,0.83252 36.557171,0.5866 40.427171,-1.43961 z m 160.32128,1.33309 c 10.61784,-2.01363 12.56606,-6.82619 13.96154,-34.48834 1.09154,-21.63699 5.85089,-123.65605 6.22799,-133.5 l 0.249,-6.5 -6.23072,-0.59607 c -6.20053,-0.59318 -10.10495,-2.22926 -23.76928,-9.96012 -4.94948,-2.80026 -6.99491,-3.38311 -11.68236,-3.32892 -4.95099,0.0572 -7.34048,0.90751 -18.56512,6.60614 -14.12099,7.16908 -19.78688,8.56411 -27.63745,6.80476 -2.68425,-0.60156 -5.00769,-0.96595 -5.16321,-0.80976 -0.44521,0.44714 7.43725,160.89351 8.08724,164.61461 0.31998,1.83185 2.09408,4.98185 3.94245,7 l 3.36067,3.66936 23.32889,0.53624 c 12.83089,0.29494 24.50497,0.63244 25.9424,0.75 1.43743,0.11757 5.01401,-0.24149 7.94796,-0.7979 z m 169.90364,-1.82997 c 6.71609,-3.60187 8.48687,-10.80984 9.49719,-38.65837 0.80377,-22.15504 2.36544,-55.8683 3.05873,-66.0317 l 0.54788,-8.03169 -5.35209,-0.0774 c -7.0108,-0.10134 -14.76061,-2.74628 -20.19013,-6.89073 -8.11438,-6.19384 -13.25455,-7.98054 -18.57198,-6.45552 -1.85667,0.53248 -7.46983,3.44516 -12.4737,6.47261 -11.37258,6.88066 -17.55364,8.36989 -25.90804,6.2421 l -5.79187,-1.47514 0.62077,9.12372 c 0.34143,5.01805 1.52897,28.47372 2.63898,52.12372 1.11001,23.65 2.48239,44.44001 3.04973,46.20002 0.56734,1.76 2.59471,4.5725 4.50527,6.25 l 3.47374,3.04998 h 28.73081 c 25.99748,0 29.05749,-0.1752 32.16471,-1.84163 z m 13.15494,-129.01372 c 0.34102,-0.35456 2.25964,-35.29465 4.26359,-77.64465 2.00395,-42.35 3.9153,-80.2625 4.24744,-84.25 l 0.6039,-7.25 h -53.20726 -53.20726 l 0.61599,8.25 c 0.33879,4.5375 2.19491,41.55 4.12472,82.25 1.9298,40.7 3.71168,74.58282 3.95972,75.29515 1.22166,3.50834 14.95594,5.61867 19.79485,3.04156 1.20134,-0.63982 4.43426,-2.84423 7.18426,-4.8987 2.75,-2.05447 7.15323,-4.45599 9.78495,-5.33671 10.26683,-3.43584 24.7009,-1.02413 32.04701,5.35456 5.72427,4.97044 11.40149,7.20478 16.16804,6.36315 1.65,-0.29135 3.27902,-0.81981 3.62005,-1.17436 z M 305.63737,263.10543 c 1.17556,-24.475 2.42105,-49.3375 2.76775,-55.25 l 0.63038,-10.75 h -53.09282 -53.09283 l 0.611,8.75 c 0.79984,11.45443 4.53915,89.069 4.53915,94.21629 0,3.39852 0.43253,4.20602 2.95034,5.50803 1.74783,0.90384 5.51797,1.51673 9.25,1.50372 6.71146,-0.0234 9.90944,-1.23476 19.65431,-7.44485 6.10835,-3.89266 12.48676,-5.53319 21.51307,-5.53319 8.30613,0 14.89993,2.07593 22.70635,7.14865 6.99601,4.54611 13.01249,6.87652 16.92593,6.55607 l 2.5,-0.20472 z M 139.25,263.62372 c 1.30904,-0.54775 1.7513,-1.90221 1.75514,-5.37528 0.006,-5.0582 1.55867,-37.0755 2.51717,-51.89301 l 0.59836,-9.25 H 90.999999 37.879326 l 0.59836,9.25 c 0.914882,14.14311 2.511392,46.73801 2.51717,51.39142 0.0048,3.90006 0.239442,4.23517 4.025379,5.75 5.396464,2.15924 13.746224,2.07919 17.148064,-0.1644 1.46756,-0.9679 4.45763,-3.7926 6.64459,-6.27712 2.18696,-2.48451 6.38623,-5.85214 9.3317,-7.4836 4.82403,-2.67198 6.24841,-2.9663 14.35541,-2.9663 8.110231,0 9.530321,0.29373 14.364221,2.9711 2.95032,1.6341 6.9133,4.86154 8.80662,7.17209 6.96569,8.5007 14.46714,10.68794 23.57916,6.8751 z M 467.02077,182.1325 c 14.58642,-0.50265 27.31623,-1.21916 28.28847,-1.59224 1.52465,-0.58507 1.72805,-1.79595 1.47924,-8.80658 l -0.28848,-8.12825 -193,-0.86681 c -182.13225,-0.818 -278.961106,-0.1552 -286.288397,1.95966 -2.175162,0.62781 -2.274125,1.06245 -2,8.78382 l 0.288396,8.12333 L 112,182.11293 c 177.55641,0.93378 328.25015,0.94209 355.02077,0.0196 z M 497,134.22787 c 0,-10.81238 -0.31578,-14.13963 -1.4297,-15.0641 -1.01717,-0.84417 -7.93426,-1.16083 -23.97226,-1.09743 -23.59825,0.0933 -27.14933,-0.43488 -31.91382,-4.74669 C 434.5246,108.65026 434.53489,108.7457 434,60.605423 l -0.5,-45 H 421 408.5 l -0.55984,42.5 c -0.62828,47.695337 -0.95632,50.172977 -7.39077,55.822497 -5.94073,5.21603 -10.56095,5.6095 -48.94781,4.16848 -19.43416,-0.72955 -41.04549,-0.97525 -50.64828,-0.57583 -17.68472,0.73559 -21.48602,0.12769 -26.26908,-4.20092 C 269.5246,108.65026 269.53489,108.7457 269,60.605423 l -0.5,-45 H 256 243.5 l -0.55984,42.5 c -0.62828,47.695337 -0.95632,50.172977 -7.39077,55.822497 -5.94139,5.21661 -10.52003,5.60266 -49.46235,4.17042 -19.55901,-0.71935 -41.41271,-0.96348 -50.62967,-0.56558 -17.12109,0.73911 -21.00203,0.1047 -25.77315,-4.21311 C 104.5246,108.65026 104.53489,108.7457 104,60.605423 l -0.5,-45 h -12.500001 -12.5 l -0.5,45 c -0.53489,48.140277 -0.5246,48.044837 -5.68422,52.714227 -4.76449,4.31181 -8.31557,4.83998 -31.913823,4.74669 -16.037993,-0.0634 -22.955089,0.25326 -23.972256,1.09743 -1.113919,0.92447 -1.429701,4.25172 -1.429701,15.0641 v 13.87756 H 256 497 Z m -269.22097,-44.872447 0.27902,-13.25 H 173.52903 119 v 12.833333 c 0,7.058334 0.30387,13.137214 0.67527,13.508604 0.37139,0.3714 24.78389,0.5589 54.25,0.41667 L 227.5,102.60543 Z m 165,0 0.27902,-13.25 H 338.52903 284 v 12.833333 c 0,7.058334 0.30387,13.137214 0.67527,13.508604 0.37139,0.3714 24.78389,0.5589 54.25,0.41667 L 392.5,102.60543 Z M 30.663898,48.105777 30.499999,22.106132 l -7.75,-3.55e-4 -7.75,-3.54e-4 v 26 26 h 7.913899 7.913898 z M 497,48.105423 v -26 h -7.86528 -7.86528 l 0.0758,26 0.0758,26 H 489.21051 497 Z m -434.000001,-0.5 v -13.5 h -8.5 -8.5 v 13.5 13.5 h 8.5 8.5 z m 165.000001,0 v -13.5 H 173.5 119 v 13.5 13.5 h 54.5 54.5 z m 165,0 v -13.5 H 338.5 284 v 13.5 13.5 h 54.5 54.5 z m 73,0 v -13.5 h -8.5 -8.5 v 13.5 13.5 h 8.5 8.5 z"
       id="path450" />
  </g>
</svg>
